<svg xmlns="http://www.w3.org/2000/svg" width="400" height="300" viewBox="0 0 400 300"><rect width="100%" height="100%" fill="#a8c5a0"/><path fill="#2d5a27" d="M121.625 164.775q.83 0 1.46.64l3.98 4.31q-3.3 4.09-8.12 6.27-4.82 2.17-11.57 2.17-6.04 0-10.85-2.06-4.82-2.06-8.24-5.74-3.41-3.68-5.23-8.77-1.82-5.1-1.82-11.14 0-6.12 1.95-11.2t5.5-8.75q3.54-3.68 8.45-5.72 4.92-2.04 10.88-2.04 5.92 0 10.52 1.94 4.59 1.96 7.82 5.11l-3.38 4.68q-.3.45-.77.79t-1.29.34q-.56 0-1.16-.32t-1.32-.79q-.71-.47-1.65-1.03-.93-.56-2.17-1.03t-2.87-.79-3.77-.32q-3.64 0-6.65 1.3-3.02 1.29-5.2 3.75-2.17 2.45-3.37 6-1.2 3.54-1.2 8.08 0 4.57 1.29 8.14 1.29 3.56 3.51 6 2.21 2.43 5.21 3.73 3 1.29 6.45 1.29 2.06 0 3.73-.22 1.67-.23 3.08-.72 1.4-.49 2.66-1.25 1.25-.77 2.49-1.9.38-.34.79-.54.41-.21.86-.21m19.09-23.36.56 4.35q1.8-3.45 4.28-5.42 2.47-1.97 5.85-1.97 2.66 0 4.27 1.17l-.6 6.93q-.19.68-.54.96-.36.28-.96.28-.56 0-1.67-.19-1.1-.18-2.15-.18-1.54 0-2.74.45t-2.16 1.29q-.95.84-1.68 2.04-.74 1.2-1.37 2.74v23.7h-9.27v-38.48h5.44q1.43 0 1.99.51t.75 1.82m20.1-2.33h9.3v38.48h-9.3zm10.57-11.21q0 1.2-.48 2.25-.49 1.05-1.3 1.84-.8.79-1.89 1.26-1.09.46-2.33.46-1.2 0-2.26-.46-1.07-.47-1.86-1.26t-1.26-1.84-.47-2.25q0-1.23.47-2.32t1.26-1.88q.79-.78 1.86-1.25 1.06-.47 2.26-.47 1.24 0 2.33.47t1.89 1.25q.81.79 1.3 1.88.48 1.09.48 2.32m38.18 15.98-2.44 3.37q-.41.53-.8.83-.4.3-1.15.3-.71 0-1.39-.43-.67-.43-1.61-.98-.94-.54-2.23-.97t-3.21-.43q-2.43 0-4.27.88t-3.06 2.53-1.82 3.99q-.6 2.35-.6 5.31 0 3.07.66 5.47t1.89 4.03q1.24 1.64 3 2.48 1.77.84 3.98.84t3.58-.54 2.31-1.2q.93-.66 1.63-1.2.69-.54 1.55-.54 1.13 0 1.69.86l2.66 3.37q-1.53 1.8-3.33 3.02t-3.73 1.95q-1.94.73-3.98 1.03t-4.07.3q-3.56 0-6.71-1.33t-5.51-3.88q-2.37-2.55-3.73-6.24-1.37-3.7-1.37-8.42 0-4.24 1.22-7.86 1.21-3.62 3.58-6.26 2.36-2.64 5.85-4.14 3.48-1.5 8.02-1.5 4.31 0 7.56 1.38 3.24 1.39 5.83 3.98m6.15-22.02h9.26v31.92h1.73q.93 0 1.48-.25.54-.24 1.1-.99l9.57-11.81q.6-.79 1.33-1.2.73-.42 1.89-.42h8.48l-11.97 14.29q-1.27 1.69-2.77 2.59.79.56 1.41 1.31.61.75 1.18 1.61l12.82 18.68h-8.36q-1.09 0-1.88-.36-.78-.35-1.31-1.29l-9.82-14.59q-.53-.86-1.09-1.12-.56-.27-1.69-.27h-2.1v17.63h-9.26zm47.4 32.07h17.47q0-1.8-.5-3.4-.51-1.59-1.52-2.79t-2.57-1.89q-1.56-.7-3.62-.7-4.01 0-6.32 2.29-2.3 2.29-2.94 6.49m23.62 5.59h-23.81q.23 2.96 1.05 5.11.83 2.16 2.18 3.57 1.35 1.4 3.2 2.1 1.86.69 4.11.69t3.88-.53q1.63-.52 2.85-1.16 1.22-.63 2.14-1.16.92-.52 1.78-.52 1.16 0 1.72.86l2.67 3.37q-1.54 1.8-3.45 3.02-1.92 1.22-4 1.95t-4.23 1.03q-2.16.3-4.19.3-4.01 0-7.46-1.33t-6-3.94q-2.55-2.6-4.01-6.45-1.46-3.84-1.46-8.9 0-3.94 1.27-7.41 1.28-3.47 3.66-6.04 2.38-2.56 5.81-4.06t7.74-1.5q3.64 0 6.72 1.16 3.07 1.16 5.28 3.39 2.22 2.23 3.47 5.48 1.26 3.24 1.26 7.4 0 2.1-.45 2.83-.45.74-1.73.74m21.94 18.67q-5.02 0-7.7-2.83-2.69-2.83-2.69-7.82v-21.49h-3.93q-.75 0-1.28-.48-.52-.49-.52-1.47v-3.67l6.18-1.01 1.95-10.5q.19-.75.72-1.17.52-.41 1.35-.41h4.8v12.11h10.27v6.6h-10.27v20.85q0 1.8.88 2.81.88 1.02 2.42 1.02.86 0 1.44-.21.58-.2 1.01-.43.43-.22.77-.43t.68-.21q.41 0 .67.21t.56.62l2.78 4.5q-2.03 1.68-4.65 2.55-2.63.86-5.44.86"/></svg>