<svg xmlns="http://www.w3.org/2000/svg" width="860" height="280" viewBox="0 0 860 280"><rect width="100%" height="100%" fill="#d4b896"/><path fill="#6b3a1f" d="M213.5 113.995v8.07h-15.91v44.71h-9.82v-44.71h-15.92v-8.07zm12.63 29.75h17.01q0-1.75-.49-3.3-.5-1.56-1.48-2.72-.99-1.17-2.5-1.85-1.52-.67-3.52-.67-3.91 0-6.15 2.22-2.25 2.23-2.87 6.32m23 5.44h-23.18q.22 2.88 1.02 4.98t2.12 3.47q1.31 1.37 3.12 2.04 1.8.68 3.99.68t3.78-.51q1.59-.52 2.78-1.14 1.18-.62 2.08-1.13.89-.51 1.73-.51 1.13 0 1.68.84l2.59 3.29q-1.5 1.75-3.36 2.93-1.86 1.19-3.88 1.9-2.03.71-4.13 1.01-2.1.29-4.07.29-3.9 0-7.26-1.3-3.36-1.29-5.84-3.83t-3.91-6.28q-1.42-3.74-1.42-8.67 0-3.83 1.24-7.21 1.24-3.37 3.56-5.87t5.66-3.96 7.53-1.46q3.54 0 6.54 1.13 2.99 1.13 5.14 3.3 2.16 2.17 3.38 5.33t1.22 7.21q0 2.04-.44 2.76-.43.71-1.67.71m28.65 7.92v-6.32q-3.91.19-6.57.68-2.67.49-4.27 1.26-1.61.76-2.3 1.79-.7 1.02-.7 2.22 0 2.38 1.41 3.4 1.4 1.02 3.67 1.02 2.77 0 4.8-1 2.02-1.01 3.96-3.05m-19.06-19.68-1.6-2.88q6.46-5.91 15.55-5.91 3.28 0 5.87 1.07 2.6 1.08 4.38 3 1.79 1.91 2.72 4.58.93 2.66.93 5.84v23.65h-4.08q-1.28 0-1.97-.38-.7-.39-1.1-1.55l-.8-2.71q-1.43 1.28-2.78 2.25t-2.81 1.62q-1.46.66-3.12 1.01-1.66.34-3.67.34-2.37 0-4.38-.63-2-.64-3.46-1.92t-2.27-3.18q-.8-1.89-.8-4.41 0-1.43.47-2.83.48-1.41 1.56-2.68 1.07-1.28 2.79-2.41 1.71-1.13 4.21-1.97t5.83-1.37q3.32-.53 7.59-.64v-2.19q0-3.76-1.61-5.57-1.6-1.8-4.63-1.8-2.19 0-3.64.51-1.44.51-2.53 1.15-1.1.63-1.99 1.15-.9.51-1.99.51-.95 0-1.61-.5-.65-.49-1.06-1.15m45.34 29.35h-9.02v-37.45h5.51q1.76 0 2.3 1.64l.59 2.78q.98-1.1 2.06-2.01t2.3-1.57 2.63-1.04q1.4-.38 3.08-.38 3.54 0 5.82 1.91 2.28 1.92 3.42 5.1.87-1.87 2.19-3.2 1.31-1.33 2.88-2.17t3.34-1.24 3.56-.4q3.1 0 5.51.95t4.05 2.77q1.64 1.83 2.5 4.45.86 2.63.86 6.03v23.83h-9.02v-23.83q0-3.58-1.57-5.39-1.57-1.8-4.6-1.8-1.38 0-2.57.47-1.18.47-2.08 1.37-.89.89-1.4 2.24-.52 1.35-.52 3.11v23.83h-9.05v-23.83q0-3.76-1.51-5.48-1.52-1.71-4.44-1.71-1.97 0-3.66.96-1.7.97-3.16 2.65zm118.15-26.39q0 5.8-1.94 10.66-1.93 4.85-5.43 8.36-3.51 3.5-8.44 5.44-4.92 1.93-10.95 1.93h-20.11v-52.78h20.11q6.03 0 10.95 1.95 4.93 1.96 8.44 5.44 3.5 3.49 5.43 8.34 1.94 4.86 1.94 10.66m-10.08 0q0-4.34-1.15-7.79t-3.32-5.84-5.25-3.67q-3.09-1.28-6.96-1.28H385.2v37.16h10.25q3.87 0 6.96-1.28 3.08-1.28 5.25-3.67t3.32-5.84 1.15-7.79m17.6-11.06h9.05v37.45h-9.05zm10.29-10.91q0 1.17-.47 2.19-.48 1.02-1.26 1.79-.79.76-1.85 1.22t-2.26.46q-1.17 0-2.21-.46t-1.8-1.22q-.77-.77-1.23-1.79-.45-1.02-.45-2.19 0-1.21.45-2.27.46-1.05 1.23-1.82.76-.77 1.8-1.22 1.04-.46 2.21-.46 1.2 0 2.26.46 1.06.45 1.85 1.22.78.77 1.26 1.82.47 1.06.47 2.27m15.77 12.55.62 2.96q1.13-1.13 2.39-2.1t2.66-1.64q1.41-.68 3.02-1.06 1.6-.38 3.5-.38 3.07 0 5.44 1.04t3.96 2.92 2.41 4.49.82 5.75v23.83h-9.02v-23.83q0-3.44-1.57-5.32-1.57-1.87-4.78-1.87-2.33 0-4.38 1.05-2.04 1.06-3.87 2.89v27.08h-9.01v-37.45h5.51q1.75 0 2.3 1.64m41.17 0 .62 2.96q1.13-1.13 2.39-2.1t2.67-1.64q1.4-.68 3.01-1.06 1.6-.38 3.5-.38 3.07 0 5.44 1.04t3.96 2.92 2.41 4.49.82 5.75v23.83h-9.02v-23.83q0-3.44-1.56-5.32-1.57-1.87-4.79-1.87-2.33 0-4.38 1.05-2.04 1.06-3.87 2.89v27.08h-9.01v-37.45h5.51q1.75 0 2.3 1.64m40.48 12.78h17.01q0-1.75-.49-3.3-.5-1.56-1.48-2.72-.99-1.17-2.5-1.85-1.52-.67-3.53-.67-3.9 0-6.15 2.22-2.24 2.23-2.86 6.32m22.99 5.44h-23.17q.22 2.88 1.02 4.98t2.12 3.47q1.31 1.37 3.12 2.04 1.8.68 3.99.68t3.78-.51q1.59-.52 2.77-1.14 1.19-.62 2.09-1.13.89-.51 1.73-.51 1.13 0 1.68.84l2.59 3.29q-1.5 1.75-3.36 2.93-1.86 1.19-3.89 1.9-2.02.71-4.12 1.01-2.1.29-4.07.29-3.91 0-7.26-1.3-3.36-1.29-5.84-3.83-2.49-2.54-3.91-6.28t-1.42-8.67q0-3.83 1.24-7.21 1.24-3.37 3.56-5.87 2.31-2.5 5.65-3.96t7.54-1.46q3.54 0 6.54 1.13 2.99 1.13 5.14 3.3 2.16 2.17 3.38 5.33t1.22 7.21q0 2.04-.44 2.76-.44.71-1.68.71m16.83-17.6.55 4.24q1.75-3.36 4.16-5.28 2.41-1.91 5.69-1.91 2.59 0 4.16 1.13l-.58 6.75q-.18.66-.53.93-.35.28-.93.28-.55 0-1.62-.19-1.08-.18-2.1-.18-1.5 0-2.67.44t-2.1 1.26-1.64 1.99-1.33 2.66v23.07h-9.02v-37.45h5.3q1.38 0 1.93.49.55.5.73 1.77m43.69-2.84-2.41-3.84q2.08-1.67 4.73-2.82 2.64-1.15 6.26-1.15 2.55 0 4.6.69 2.04.69 3.46 1.95 1.43 1.26 2.18 3.03.74 1.77.74 3.93 0 2-.51 3.44-.51 1.45-1.27 2.52-.77 1.08-1.68 1.85-.92.76-1.75 1.44-.84.67-1.48 1.33t-.82 1.46l-.81 3.5h-6.17l-.62-4.16q-.22-1.35.2-2.31.42-.97 1.17-1.76.75-.78 1.68-1.46.93-.67 1.75-1.42t1.39-1.68.57-2.21q0-1.27-.88-2.08-.88-.8-2.55-.8-1.32 0-2.21.26-.9.25-1.55.54-.66.29-1.15.55-.5.26-1.04.26-1.25 0-1.83-1.06m2.92 26.61q0-1.03.38-1.94.39-.91 1.04-1.59.66-.67 1.57-1.06.92-.38 1.97-.38 1.03 0 1.92.38.9.39 1.57 1.06.68.68 1.06 1.59t.38 1.94q0 1.05-.38 1.95-.38.89-1.06 1.55-.67.66-1.57 1.04-.89.38-1.92.38-1.05 0-1.97-.38-.91-.38-1.57-1.04-.65-.66-1.04-1.55-.38-.9-.38-1.95m-12.52 11.42v-52.78h36.87v52.78zm2.37-50.3v47.78h31.87v-47.78zm47.16 12.27-2.41-3.84q2.08-1.67 4.73-2.82t6.26-1.15q2.55 0 4.6.69 2.04.69 3.47 1.95 1.42 1.26 2.17 3.03t.75 3.93q0 2-.52 3.44-.51 1.45-1.27 2.52-.77 1.08-1.68 1.85-.91.76-1.75 1.44-.84.67-1.48 1.33t-.82 1.46l-.81 3.5h-6.16l-.63-4.16q-.21-1.35.21-2.31.42-.97 1.16-1.76.75-.78 1.68-1.46.93-.67 1.75-1.42.83-.75 1.39-1.68.57-.93.57-2.21 0-1.27-.88-2.08-.87-.8-2.55-.8-1.32 0-2.21.26-.9.25-1.55.54-.66.29-1.15.55-.5.26-1.04.26-1.24 0-1.83-1.06m2.92 26.61q0-1.03.39-1.94.38-.91 1.04-1.59.65-.67 1.56-1.06.92-.38 1.98-.38 1.02 0 1.91.38.9.39 1.57 1.06.68.68 1.06 1.59t.38 1.94q0 1.05-.38 1.95-.38.89-1.06 1.55-.67.66-1.57 1.04-.89.38-1.91.38-1.06 0-1.98-.38-.91-.38-1.56-1.04-.66-.66-1.04-1.55-.39-.9-.39-1.95m-12.52 11.42v-52.78h36.87v52.78zm2.37-50.3v47.78h31.87v-47.78z"/></svg>