<svg xmlns="http://www.w3.org/2000/svg" width="400" height="300" viewBox="0 0 400 300"><rect width="100%" height="100%" fill="#c9a0c9"/><path fill="#5a1a7a" d="M149.945 103.815h17.55v93.99h-17.55v-41.08h-44.13v41.08h-17.55v-93.99h17.55v40.43h44.13zm65.46 26.26q7.41 0 13.48 2.4 6.08 2.41 10.4 6.83 4.33 4.42 6.67 10.79t2.34 14.23q0 7.93-2.34 14.3-2.34 6.38-6.67 10.86-4.32 4.49-10.4 6.89-6.07 2.41-13.48 2.41-7.48 0-13.59-2.41-6.11-2.4-10.43-6.89-4.32-4.48-6.7-10.86-2.37-6.37-2.37-14.3 0-7.86 2.37-14.23 2.38-6.37 6.7-10.79t10.43-6.83q6.11-2.4 13.59-2.4m0 56.35q8.32 0 12.31-5.58 4-5.59 4-16.38t-4-16.45q-3.99-5.66-12.31-5.66-8.45 0-12.52 5.69-4.06 5.69-4.06 16.42 0 10.72 4.06 16.34 4.07 5.62 12.52 5.62m45.37-85.21h16.05v96.59h-16.05zm32.63 29.9h16.12v66.69h-16.12zm18.33-19.44q0 2.08-.85 3.9-.84 1.82-2.24 3.19t-3.28 2.18q-1.89.81-4.03.81-2.08 0-3.93-.81-1.86-.81-3.22-2.18-1.37-1.37-2.18-3.19t-.81-3.9q0-2.14.81-4.03.81-1.88 2.18-3.25 1.36-1.36 3.22-2.17 1.85-.82 3.93-.82 2.14 0 4.03.82 1.88.81 3.28 2.17 1.4 1.37 2.24 3.25.85 1.89.85 4.03"/></svg>