<svg xmlns="http://www.w3.org/2000/svg" width="400" height="300" viewBox="0 0 400 300"><rect width="100%" height="100%" fill="#a8c9a8"/><path fill="#2a5a2a" d="m103.51 131.715-1.64 3.11q-.3.51-.63.74-.33.24-.82.24-.51 0-1.11-.38t-1.44-.85q-.83-.46-1.94-.84-1.12-.38-2.64-.38-1.37 0-2.4.33t-1.73.92q-.7.58-1.04 1.4-.34.83-.34 1.81 0 1.24.7 2.08.7.83 1.85 1.42t2.62 1.05q1.47.47 3.01.99 1.55.53 3.02 1.23t2.62 1.76q1.15 1.07 1.85 2.61.69 1.55.69 3.75 0 2.4-.82 4.5-.82 2.09-2.4 3.65-1.58 1.55-3.86 2.45-2.27.89-5.21.89-1.69 0-3.34-.33-1.64-.33-3.14-.94-1.51-.61-2.83-1.47-1.33-.86-2.36-1.91l1.94-3.16q.24-.35.64-.58.39-.23.83-.23.61 0 1.32.5t1.69 1.11q.98.62 2.29 1.12t3.15.5q2.82 0 4.36-1.33 1.55-1.34 1.55-3.84 0-1.39-.7-2.28-.7-.88-1.85-1.48t-2.62-1.02q-1.47-.41-2.99-.9t-2.99-1.18q-1.47-.68-2.62-1.79-1.15-1.1-1.85-2.75-.7-1.66-.7-4.08 0-1.94.77-3.77.77-1.84 2.24-3.26t3.63-2.28q2.15-.86 4.95-.86 3.13 0 5.78.98t4.51 2.75m11.46 14.3v11.27q1.03 1.25 2.25 1.77 1.21.51 2.63.51 1.37 0 2.47-.51 1.11-.52 1.88-1.57t1.19-2.66q.41-1.6.41-3.78 0-2.21-.35-3.74-.36-1.53-1.02-2.49-.66-.95-1.6-1.39-.95-.44-2.15-.44-1.88 0-3.21.79-1.32.8-2.5 2.24m-.8-6.24.49 2.32q1.54-1.74 3.5-2.81 1.96-1.08 4.6-1.08 2.06 0 3.77.85 1.7.86 2.94 2.49 1.23 1.63 1.91 4.02.67 2.39.67 5.48 0 2.81-.76 5.21t-2.17 4.17q-1.41 1.76-3.4 2.76-2 .99-4.47.99-2.11 0-3.61-.65-1.49-.65-2.67-1.8v10.29h-6.05v-33.35h3.7q1.18 0 1.55 1.11m33.71-1.5q2.79 0 5.08.91 2.29.9 3.92 2.57t2.51 4.07.88 5.36q0 2.99-.88 5.39t-2.51 4.09-3.92 2.6-5.08.91q-2.82 0-5.12-.91-2.31-.91-3.94-2.6-1.62-1.69-2.52-4.09-.89-2.4-.89-5.39 0-2.96.89-5.36.9-2.4 2.52-4.07 1.63-1.67 3.94-2.57 2.3-.91 5.12-.91m0 21.24q3.13 0 4.64-2.1 1.51-2.11 1.51-6.18t-1.51-6.2-4.64-2.13q-3.19 0-4.72 2.15-1.53 2.14-1.53 6.18t1.53 6.16 4.72 2.12m22.37-19.33.36 2.84q1.18-2.25 2.8-3.54 1.61-1.28 3.82-1.28 1.74 0 2.79.76l-.39 4.53q-.12.44-.36.62-.23.19-.62.19-.37 0-1.09-.12-.72-.13-1.41-.13-1 0-1.79.3-.78.29-1.41.84-.62.55-1.1 1.34-.48.78-.89 1.79v15.48h-6.06v-25.14h3.56q.93 0 1.3.33.36.33.49 1.19m21.31 24.01q-3.28 0-5.03-1.85-1.76-1.85-1.76-5.11v-14.03h-2.57q-.49 0-.83-.32t-.34-.96v-2.4l4.04-.66 1.27-6.86q.12-.49.47-.76.34-.27.88-.27h3.14v7.91h6.71v4.32h-6.71v13.62q0 1.17.57 1.83.58.67 1.58.67.57 0 .95-.14.37-.13.66-.28.28-.15.5-.28.22-.14.44-.14.27 0 .44.14.17.13.37.4l1.81 2.94q-1.32 1.11-3.04 1.67-1.71.56-3.55.56m26.56-22.81-1.37 2.18q-.25.39-.52.55t-.68.16q-.44 0-.95-.24-.5-.25-1.16-.55-.66-.31-1.51-.55-.84-.25-1.99-.25-1.79 0-2.81.76t-1.02 1.98q0 .81.53 1.36.53.56 1.4.97.87.42 1.97.75t2.24.72 2.24.9q1.11.5 1.98 1.27.86.77 1.39 1.85t.53 2.6q0 1.81-.65 3.34t-1.92 2.65q-1.28 1.11-3.15 1.74-1.88.62-4.33.62-1.3 0-2.53-.23-1.24-.23-2.38-.65t-2.11-.98q-.96-.56-1.7-1.23l1.4-2.3q.27-.41.63-.63.37-.23.94-.23.56 0 1.06.32t1.17.69q.66.37 1.55.68.9.32 2.27.32 1.08 0 1.85-.25.77-.26 1.27-.68.5-.41.74-.97.23-.55.23-1.13 0-.89-.53-1.45-.52-.56-1.39-.98t-1.99-.75q-1.11-.33-2.28-.72-1.16-.39-2.28-.92-1.11-.53-1.98-1.33-.87-.81-1.4-1.99-.52-1.17-.52-2.84 0-1.54.61-2.94t1.8-2.44 2.96-1.66q1.78-.63 4.11-.63 2.59 0 4.73.86 2.13.86 3.55 2.25m49.15 4.71q0 3.89-1.3 7.15t-3.65 5.61q-2.36 2.35-5.66 3.65-3.31 1.3-7.35 1.3h-13.5v-35.43h13.5q4.04 0 7.35 1.31 3.3 1.31 5.66 3.65 2.35 2.34 3.65 5.6t1.3 7.16m-6.77 0q0-2.92-.77-5.23-.77-2.32-2.23-3.92-1.46-1.61-3.53-2.47-2.07-.85-4.66-.85h-6.89v24.94h6.89q2.59 0 4.66-.86t3.53-2.46q1.46-1.61 2.23-3.92.77-2.32.77-5.23m24.9 11.22v-4.24q-2.63.12-4.41.45-1.79.33-2.87.85-1.08.51-1.54 1.2-.47.68-.47 1.49 0 1.59.94 2.28.95.69 2.47.69 1.86 0 3.22-.68 1.36-.67 2.66-2.04m-12.79-13.21-1.08-1.93q4.34-3.97 10.44-3.97 2.2 0 3.94.72t2.94 2.01 1.83 3.07q.62 1.79.62 3.92v15.88h-2.74q-.86 0-1.33-.26-.46-.25-.73-1.04l-.54-1.81q-.96.86-1.86 1.51-.91.64-1.89 1.09-.98.44-2.09.67-1.12.23-2.47.23-1.59 0-2.94-.43-1.34-.43-2.32-1.28-.98-.86-1.52-2.13-.54-1.28-.54-2.97 0-.95.32-1.9.32-.94 1.04-1.8t1.87-1.62 2.83-1.32 3.91-.92q2.23-.35 5.1-.43v-1.47q0-2.52-1.08-3.73t-3.11-1.21q-1.47 0-2.44.34t-1.7.77q-.74.43-1.34.77t-1.33.34q-.64 0-1.08-.33t-.71-.77m42.36-5.44h4.85l-13.7 32.05q-.27.64-.7.97-.42.33-1.31.33h-4.5l4.7-10.1-10.17-23.25h5.32q.71 0 1.11.35.41.34.6.78l5.34 13.03q.27.67.46 1.33.18.66.35 1.34l.44-1.36q.23-.67.49-1.33l5.05-13.01q.2-.49.65-.81t1.02-.32"/></svg>