<svg xmlns="http://www.w3.org/2000/svg" width="400" height="300" viewBox="0 0 400 300"><rect width="100%" height="100%" fill="#b8b0a8"/><path fill="#4a3d35" d="m99.66 135.675-1.31 2.48q-.23.41-.49.6-.27.18-.66.18-.41 0-.89-.3-.47-.3-1.14-.67-.66-.37-1.55-.68-.88-.3-2.09-.3-1.09 0-1.91.26-.82.27-1.38.74-.55.46-.83 1.12-.27.65-.27 1.43 0 .99.56 1.66.55.66 1.47 1.13.91.47 2.08.84t2.4.79 2.4.97q1.17.56 2.09 1.41.91.84 1.47 2.07t.56 2.99q0 1.91-.66 3.57-.65 1.67-1.91 2.91t-3.07 1.95-4.15.71q-1.35 0-2.65-.26-1.31-.26-2.51-.75t-2.25-1.17q-1.06-.68-1.87-1.52l1.54-2.52q.19-.27.5-.46.31-.18.67-.18.48 0 1.05.4.56.4 1.34.89.78.48 1.83.88 1.04.4 2.5.4 2.25 0 3.47-1.06 1.23-1.06 1.23-3.05 0-1.11-.55-1.82-.56-.7-1.48-1.18-.91-.47-2.08-.8-1.17-.34-2.38-.73t-2.38-.93q-1.17-.55-2.09-1.43-.91-.87-1.47-2.19-.55-1.32-.55-3.25 0-1.54.61-3t1.78-2.59 2.89-1.82q1.72-.68 3.94-.68 2.5 0 4.6.78 2.11.78 3.59 2.18m10.98 25.86q-2.62 0-4.01-1.47t-1.39-4.07v-11.17h-2.05q-.39 0-.66-.25-.28-.26-.28-.76v-1.91l3.22-.53 1.01-5.46q.1-.39.37-.61.28-.21.71-.21h2.49v6.3h5.35v3.43h-5.35v10.84q0 .94.46 1.47.46.52 1.26.52.45 0 .75-.11.3-.1.53-.22l.4-.22q.17-.11.35-.11.21 0 .35.11.13.1.29.32l1.44 2.34q-1.05.88-2.41 1.32-1.37.45-2.83.45m20.26-20.32h4.81v20.01h-2.94q-.96 0-1.21-.88l-.33-1.6q-1.23 1.25-2.71 2.02t-3.49.77q-1.64 0-2.9-.55-1.25-.56-2.11-1.57-.86-1.02-1.3-2.41-.44-1.4-.44-3.07v-12.72h4.82v12.72q0 1.83.85 2.83.84 1.01 2.54 1.01 1.25 0 2.34-.56 1.09-.55 2.07-1.53zm22.13 14.08v-8.97q-.82-.99-1.78-1.4-.97-.41-2.08-.41-1.09 0-1.97.41t-1.5 1.24q-.63.83-.96 2.1-.33 1.28-.33 3.01 0 1.76.28 2.98.29 1.22.81 1.99.53.77 1.29 1.11t1.7.34q1.5 0 2.55-.62 1.05-.63 1.99-1.78m0-23.05h4.82v28.98h-2.95q-.95 0-1.21-.88l-.41-1.93q-1.2 1.39-2.77 2.24-1.57.86-3.66.86-1.64 0-3-.68-1.37-.68-2.35-1.98-.99-1.3-1.52-3.21-.54-1.91-.54-4.37 0-2.22.6-4.13.61-1.91 1.74-3.31 1.13-1.41 2.71-2.2t3.55-.79q1.68 0 2.87.53 1.18.53 2.12 1.42zm23.89 8.97h3.86l-10.9 25.51q-.22.51-.56.77t-1.04.26h-3.59l3.75-8.03-8.1-18.51h4.23q.57 0 .89.28.32.27.48.62l4.25 10.37q.22.53.36 1.06.15.52.28 1.07.18-.55.36-1.08.17-.54.39-1.07l4.01-10.35q.16-.39.52-.64.36-.26.81-.26m32.82-5.54-1.31 2.48q-.23.41-.5.6-.26.18-.65.18-.41 0-.89-.3t-1.14-.67-1.55-.68q-.89-.3-2.09-.3-1.1 0-1.92.26-.81.27-1.37.74-.56.46-.83 1.12-.27.65-.27 1.43 0 .99.55 1.66.56.66 1.48 1.13.91.47 2.08.84t2.4.79 2.4.97q1.17.56 2.09 1.41.91.84 1.47 2.07.55 1.23.55 2.99 0 1.91-.65 3.57-.65 1.67-1.91 2.91t-3.07 1.95q-1.82.71-4.16.71-1.34 0-2.65-.26-1.3-.26-2.5-.75t-2.26-1.17q-1.05-.68-1.87-1.52l1.54-2.52q.2-.27.51-.46.31-.18.66-.18.49 0 1.06.4.56.4 1.34.89.78.48 1.82.88 1.05.4 2.51.4 2.24 0 3.47-1.06t1.23-3.05q0-1.11-.56-1.82-.55-.7-1.47-1.18-.91-.47-2.08-.8-1.17-.34-2.38-.73t-2.38-.93q-1.17-.55-2.09-1.43-.92-.87-1.47-2.19-.56-1.32-.56-3.25 0-1.54.62-3 .61-1.46 1.78-2.59t2.89-1.82q1.71-.68 3.94-.68 2.49 0 4.6.78 2.1.78 3.59 2.18m8.11 13.25h9.09q0-.94-.27-1.77-.26-.83-.79-1.45-.52-.63-1.33-.99t-1.88-.36q-2.09 0-3.29 1.19t-1.53 3.38m12.28 2.9h-12.38q.12 1.54.55 2.66t1.13 1.86q.7.73 1.67 1.09.96.36 2.13.36t2.02-.28q.85-.27 1.48-.6t1.11-.6q.48-.28.93-.28.6 0 .9.45l1.38 1.76q-.8.93-1.79 1.57-1 .63-2.08 1.01t-2.2.54q-1.13.15-2.18.15-2.08 0-3.88-.69-1.79-.69-3.12-2.05-1.32-1.35-2.09-3.35-.76-2-.76-4.63 0-2.05.67-3.85.66-1.81 1.9-3.14 1.24-1.34 3.02-2.12 1.79-.78 4.03-.78 1.89 0 3.49.61 1.6.6 2.75 1.76t1.8 2.85q.65 1.68.65 3.85 0 1.09-.23 1.47t-.9.38m18.04-8.44-1.09 1.73q-.2.32-.41.44-.21.13-.55.13-.35 0-.75-.2-.4-.19-.92-.44-.53-.24-1.2-.43-.68-.2-1.59-.2-1.43 0-2.23.61-.81.6-.81 1.57 0 .65.42 1.09.41.44 1.11.77.69.33 1.57.59.87.27 1.78.58t1.79.71q.87.4 1.56 1.01.7.62 1.12 1.48.42.85.42 2.06 0 1.45-.52 2.66-.52 1.22-1.53 2.11-1.02.89-2.51 1.38-1.49.5-3.44.5-1.03 0-2.02-.18-.98-.19-1.89-.52t-1.68-.78-1.35-.98l1.11-1.83q.21-.33.51-.51.29-.17.74-.17t.85.25q.4.26.92.55.53.29 1.24.55.71.25 1.8.25.86 0 1.48-.21.61-.2 1.01-.53t.59-.77q.18-.44.18-.91 0-.7-.42-1.15t-1.11-.78-1.58-.59q-.89-.27-1.81-.58-.93-.31-1.82-.73-.88-.42-1.58-1.06-.69-.65-1.11-1.58-.42-.94-.42-2.27 0-1.22.49-2.34.49-1.11 1.43-1.94.95-.82 2.36-1.32 1.42-.5 3.27-.5 2.07 0 3.76.68 1.7.69 2.83 1.8m17.14 0-1.09 1.73q-.2.32-.41.44-.21.13-.55.13-.35 0-.75-.2-.4-.19-.92-.44-.53-.24-1.2-.43-.67-.2-1.59-.2-1.42 0-2.23.61-.81.6-.81 1.57 0 .65.42 1.09t1.11.77 1.57.59q.87.27 1.78.58t1.79.71q.87.4 1.57 1.01.69.62 1.11 1.48.42.85.42 2.06 0 1.45-.52 2.66-.52 1.22-1.53 2.11-1.02.89-2.51 1.38-1.49.5-3.44.5-1.03 0-2.02-.18-.98-.19-1.89-.52t-1.68-.78-1.35-.98l1.11-1.83q.22-.33.51-.51.29-.17.74-.17t.85.25q.4.26.92.55.53.29 1.24.55.71.25 1.81.25.85 0 1.47-.21.61-.2 1.01-.53t.59-.77q.18-.44.18-.91 0-.7-.42-1.15t-1.11-.78-1.58-.59q-.89-.27-1.81-.58-.93-.31-1.82-.73-.88-.42-1.58-1.06-.69-.65-1.11-1.58-.42-.94-.42-2.27 0-1.22.49-2.34.49-1.11 1.43-1.94.95-.82 2.36-1.32 1.42-.5 3.27-.5 2.07 0 3.76.68 1.7.69 2.83 1.8m4-2.17h4.84v20.01h-4.84zm5.5-5.83q0 .63-.26 1.17-.25.55-.67.96t-.98.65q-.57.24-1.21.24-.63 0-1.18-.24-.56-.24-.97-.65t-.65-.96q-.24-.54-.24-1.17 0-.64.24-1.21.24-.56.65-.97t.97-.65q.55-.25 1.18-.25.64 0 1.21.25.56.24.98.65t.67.97q.26.57.26 1.21m13.1 5.52q2.23 0 4.05.72t3.12 2.05 2 3.24.7 4.27q0 2.38-.7 4.29t-2 3.25q-1.3 1.35-3.12 2.07t-4.05.72q-2.24 0-4.07-.72-1.84-.72-3.13-2.07-1.3-1.34-2.01-3.25t-.71-4.29q0-2.36.71-4.27t2.01-3.24q1.29-1.33 3.13-2.05 1.83-.72 4.07-.72m0 16.91q2.5 0 3.7-1.68t1.2-4.91q0-3.24-1.2-4.94-1.2-1.69-3.7-1.69-2.53 0-3.75 1.7-1.22 1.71-1.22 4.93 0 3.21 1.22 4.9t3.75 1.69m17.73-15.72.33 1.58q.6-.6 1.28-1.12.67-.52 1.42-.88t1.61-.56q.86-.21 1.87-.21 1.64 0 2.91.56 1.26.55 2.11 1.56.85 1 1.29 2.4.44 1.39.44 3.07v12.73h-4.82v-12.73q0-1.84-.84-2.84t-2.55-1q-1.25 0-2.34.56-1.09.57-2.07 1.54v14.47h-4.82v-20.01h2.95q.94 0 1.23.88"/></svg>