<svg xmlns="http://www.w3.org/2000/svg" width="400" height="300" viewBox="0 0 400 300"><rect width="100%" height="100%" fill="#b5a89a"/><path fill="#4a2e18" d="M99.345 133.285v4.09h-8.07v22.66h-4.98v-22.66h-8.06v-4.09zm6.4 15.08h8.62q0-.89-.25-1.68-.25-.78-.75-1.38-.5-.59-1.27-.93-.76-.34-1.78-.34-1.98 0-3.12 1.13-1.14 1.12-1.45 3.2m11.65 2.75h-11.74q.11 1.46.51 2.53.41 1.06 1.08 1.76.66.69 1.58 1.03.91.34 2.02.34t1.92-.25q.8-.26 1.41-.58.6-.31 1.05-.57t.88-.26q.57 0 .85.42l1.31 1.67q-.76.89-1.7 1.49t-1.97.96-2.09.51-2.06.15q-1.98 0-3.68-.66-1.71-.66-2.96-1.94-1.26-1.29-1.98-3.18-.73-1.9-.73-4.4 0-1.94.63-3.65t1.81-2.98q1.17-1.27 2.87-2.01 1.69-.74 3.82-.74 1.79 0 3.31.58 1.51.57 2.61 1.67 1.09 1.1 1.71 2.7t.62 3.66q0 1.03-.23 1.39-.22.36-.85.36m14.53 4.02v-3.2q-1.98.09-3.33.34t-2.17.64q-.81.39-1.16.9-.36.52-.36 1.13 0 1.21.72 1.72.71.52 1.86.52 1.4 0 2.43-.51t2.01-1.54m-9.66-9.97-.82-1.47q3.28-2.99 7.89-2.99 1.66 0 2.97.54 1.32.55 2.22 1.52.91.97 1.38 2.32t.47 2.96v11.99h-2.07q-.65 0-1-.19-.35-.2-.55-.79l-.41-1.37q-.72.65-1.4 1.14-.69.49-1.43.82t-1.58.51-1.86.18q-1.2 0-2.22-.33-1.02-.32-1.76-.97t-1.14-1.61q-.41-.96-.41-2.24 0-.72.24-1.43t.79-1.36q.54-.65 1.41-1.22t2.14-1q1.26-.43 2.95-.69 1.68-.27 3.85-.33v-1.11q0-1.9-.82-2.82-.81-.91-2.35-.91-1.11 0-1.84.25-.73.26-1.28.59-.56.32-1.01.58-.46.26-1.01.26-.48 0-.81-.25-.34-.25-.54-.58m22.98 14.87h-4.57v-18.98h2.79q.89 0 1.17.83l.29 1.41q.5-.56 1.05-1.02.54-.46 1.16-.8.62-.33 1.33-.52.72-.2 1.57-.2 1.79 0 2.95.97 1.15.98 1.73 2.59.44-.95 1.11-1.62.66-.68 1.46-1.1.79-.43 1.69-.63.9-.21 1.81-.21 1.57 0 2.79.48 1.22.49 2.05 1.41.84.93 1.27 2.26t.43 3.05v12.08h-4.56v-12.08q0-1.81-.8-2.73-.8-.91-2.33-.91-.7 0-1.31.24-.6.24-1.05.69t-.71 1.14q-.26.68-.26 1.57v12.08h-4.59v-12.08q0-1.91-.77-2.78-.76-.86-2.24-.86-1 0-1.86.49t-1.6 1.34zm53.68-26.75h5v26.75h-5v-11.69h-12.56v11.69h-4.99v-26.75h4.99v11.51h12.56zm20.26 21.85v-3.2q-1.98.09-3.33.34t-2.16.64q-.82.39-1.17.9-.35.52-.35 1.13 0 1.21.71 1.72.71.52 1.86.52 1.41 0 2.43-.51 1.03-.51 2.01-1.54m-9.66-9.97-.81-1.47q3.27-2.99 7.88-2.99 1.67 0 2.98.54 1.31.55 2.22 1.52t1.38 2.32.47 2.96v11.99h-2.07q-.65 0-1-.19-.35-.2-.56-.79l-.4-1.37q-.73.65-1.41 1.14t-1.42.82-1.59.51q-.84.18-1.86.18-1.2 0-2.22-.33-1.01-.32-1.75-.97t-1.15-1.61-.41-2.24q0-.72.24-1.43t.79-1.36 1.41-1.22q.87-.57 2.14-1t2.95-.69q1.69-.27 3.85-.33v-1.11q0-1.9-.81-2.82-.82-.91-2.35-.91-1.11 0-1.84.25-.73.26-1.29.59-.55.32-1.01.58-.45.26-1.01.26-.48 0-.81-.25t-.54-.58m22.37-3.28.31 1.5q.58-.57 1.22-1.06.63-.49 1.35-.84.71-.34 1.52-.53.82-.2 1.78-.2 1.55 0 2.76.53 1.2.53 2 1.48.81.95 1.22 2.28.42 1.32.42 2.91v12.08h-4.57v-12.08q0-1.74-.8-2.69-.79-.95-2.42-.95-1.18 0-2.22.53-1.03.54-1.96 1.46v13.73h-4.57v-18.98h2.79q.89 0 1.17.83m23.85 8.2q.85 0 1.48-.23.63-.24 1.04-.64.42-.41.63-.98.21-.58.21-1.26 0-1.41-.84-2.23t-2.52-.82q-1.69 0-2.53.82t-.84 2.23q0 .67.21 1.24t.63.99q.42.41 1.06.65.63.23 1.47.23m5.16 10.8q0-.55-.34-.91-.33-.35-.9-.54-.58-.2-1.34-.29-.77-.09-1.63-.14-.86-.04-1.78-.08-.91-.04-1.78-.15-.76.43-1.23 1t-.47 1.33q0 .5.25.94.25.43.79.75.55.31 1.42.49.87.17 2.12.17 1.28 0 2.21-.19.92-.2 1.52-.54t.88-.81.28-1.03m-.91-19.18h5.46v1.7q0 .81-.98 1l-1.7.31q.38.98.38 2.15 0 1.4-.56 2.54t-1.56 1.93q-1 .8-2.36 1.24-1.36.43-2.93.43-.56 0-1.08-.06-.51-.05-1.01-.14-.89.53-.89 1.2 0 .57.53.84.52.27 1.39.38t1.98.14 2.28.12q1.16.09 2.27.32t1.98.73 1.4 1.36.53 2.21q0 1.26-.62 2.45-.62 1.18-1.8 2.11-1.17.92-2.88 1.48-1.72.57-3.9.57-2.14 0-3.74-.42-1.59-.41-2.64-1.11-1.06-.69-1.57-1.6-.52-.9-.52-1.89 0-1.33.8-2.22.81-.9 2.21-1.44-.75-.39-1.2-1.03-.44-.65-.44-1.71 0-.42.15-.87.16-.46.47-.9.3-.45.76-.84.47-.4 1.1-.72-1.45-.77-2.27-2.07-.82-1.29-.82-3.03 0-1.41.56-2.55.57-1.13 1.57-1.94 1.01-.8 2.39-1.23 1.38-.42 3.01-.42 1.22 0 2.29.25t1.96.73m16.74-.95q2.11 0 3.84.69 1.73.68 2.96 1.94t1.9 3.07q.66 1.81.66 4.05 0 2.26-.66 4.07-.67 1.82-1.9 3.09-1.23 1.28-2.96 1.96-1.73.69-3.84.69-2.12 0-3.86-.69-1.74-.68-2.97-1.96-1.23-1.27-1.91-3.09-.67-1.81-.67-4.07 0-2.24.67-4.05.68-1.81 1.91-3.07t2.97-1.94q1.74-.69 3.86-.69m0 16.04q2.37 0 3.51-1.59t1.14-4.66-1.14-4.68-3.51-1.61q-2.4 0-3.56 1.62-1.15 1.62-1.15 4.67t1.15 4.65q1.16 1.6 3.56 1.6m24.65-15.74h4.57v18.98h-2.8q-.9 0-1.15-.83l-.31-1.52q-1.17 1.18-2.57 1.92-1.41.73-3.31.73-1.56 0-2.75-.53t-2.01-1.49q-.81-.96-1.23-2.29-.41-1.32-.41-2.91v-12.06h4.57v12.06q0 1.74.8 2.69.81.96 2.41.96 1.19 0 2.22-.53 1.04-.53 1.97-1.45zm15.41 19.28q-2.48 0-3.81-1.4-1.32-1.4-1.32-3.86v-10.6h-1.94q-.37 0-.63-.24t-.26-.72v-1.81l3.05-.5.97-5.18q.09-.37.35-.58.26-.2.66-.2h2.37v5.98h5.07v3.25h-5.07v10.29q0 .89.44 1.39.43.49 1.19.49.42 0 .71-.1t.5-.21.38-.21.33-.1q.21 0 .34.1t.27.3l1.37 2.22q-1 .84-2.29 1.26-1.3.43-2.68.43"/></svg>