<svg xmlns="http://www.w3.org/2000/svg" width="400" height="300" viewBox="0 0 400 300"><rect width="100%" height="100%" fill="#c9b99a"/><path fill="#5c3d1e" d="M127.76 127.365h5.49l-11.68 37.6h-6.32l-8.21-25.69q-.34-.93-.63-2.29-.15.65-.31 1.23-.15.57-.34 1.06l-8.29 25.69h-6.34l-11.65-37.6h5.85q.91 0 1.52.43t.82 1.16l6.39 22.49q.21.83.41 1.81l.4 2.04q.21-1.09.45-2.06.25-.96.54-1.79l7.38-22.49q.21-.6.82-1.09.61-.5 1.5-.5h2.05q.91 0 1.48.45.57.44.86 1.14l7.36 22.49q.54 1.61.99 3.72.33-2.06.75-3.72l6.4-22.49q.15-.65.79-1.12t1.52-.47m20.9 10.51q2.97 0 5.4.96t4.16 2.73 2.66 4.32q.94 2.54.94 5.69 0 3.17-.94 5.72-.93 2.55-2.66 4.34-1.73 1.8-4.16 2.76t-5.4.96q-2.99 0-5.43-.96t-4.17-2.76q-1.73-1.79-2.68-4.34t-.95-5.72q0-3.15.95-5.69.95-2.55 2.68-4.32t4.17-2.73 5.43-.96m0 22.54q3.33 0 4.93-2.24 1.6-2.23 1.6-6.55 0-4.31-1.6-6.58-1.6-2.26-4.93-2.26-3.38 0-5 2.28-1.63 2.27-1.63 6.56t1.63 6.54q1.62 2.25 5 2.25m23.74-20.51.39 3.01q1.25-2.39 2.97-3.76 1.71-1.36 4.05-1.36 1.85 0 2.97.81l-.42 4.81q-.13.46-.38.66-.24.19-.66.19-.39 0-1.16-.13-.76-.13-1.49-.13-1.07 0-1.9.32-.83.31-1.5.89-.66.59-1.17 1.42-.5.83-.94 1.9v16.43h-6.43v-26.68h3.77q.99 0 1.38.35.39.36.52 1.27m13.73-13.58h6.42v22.13h1.2q.65 0 1.02-.17.38-.17.77-.69l6.63-8.19q.42-.54.92-.83.51-.29 1.32-.29h5.87l-8.29 9.91q-.88 1.17-1.92 1.79.54.39.97.91t.82 1.12l8.89 12.95h-5.8q-.75 0-1.3-.25-.54-.24-.91-.89l-6.81-10.12q-.36-.6-.75-.78t-1.17-.18h-1.46v12.22h-6.42zm45.53 14.85-1.46 2.31q-.26.42-.55.59-.28.17-.72.17-.47 0-1.01-.26-.53-.26-1.23-.59-.7-.32-1.6-.58t-2.12-.26q-1.9 0-2.98.8-1.07.81-1.07 2.11 0 .86.55 1.44.56.59 1.49 1.03.92.44 2.09.79t2.38.77 2.38.95 2.09 1.35 1.48 1.96q.56 1.15.56 2.76 0 1.92-.69 3.55-.69 1.62-2.04 2.81-1.35 1.18-3.34 1.84-1.99.67-4.59.67-1.38 0-2.69-.25t-2.52-.69-2.24-1.04q-1.02-.6-1.8-1.3l1.48-2.44q.28-.45.67-.68t.99-.23 1.13.33q.54.34 1.24.73t1.65.73 2.4.34q1.15 0 1.97-.28.82-.27 1.35-.71t.78-1.03q.25-.58.25-1.21 0-.93-.56-1.53t-1.49-1.04q-.92-.44-2.1-.79t-2.42-.77q-1.23-.42-2.42-.98-1.18-.55-2.1-1.41-.93-.86-1.49-2.11-.55-1.25-.55-3.01 0-1.64.65-3.12.65-1.49 1.91-2.59 1.26-1.11 3.14-1.77 1.89-.66 4.36-.66 2.75 0 5.02.91 2.26.91 3.77 2.39m11.54-14.85v14.82q1.56-1.45 3.43-2.36t4.4-.91q2.18 0 3.87.74t2.82 2.08 1.72 3.2q.58 1.86.58 4.09v16.98h-6.42v-16.98q0-2.44-1.12-3.78t-3.4-1.34q-1.67 0-3.12.75-1.46.76-2.76 2.06v19.29h-6.42v-38.64zm34.71 11.55q2.96 0 5.4.96 2.43.96 4.16 2.73 1.72 1.77 2.66 4.32.94 2.54.94 5.69 0 3.17-.94 5.72t-2.66 4.34q-1.73 1.8-4.16 2.76-2.44.96-5.4.96-2.99 0-5.43-.96-2.45-.96-4.18-2.76-1.73-1.79-2.67-4.34-.95-2.55-.95-5.72 0-3.15.95-5.69.94-2.55 2.67-4.32t4.18-2.73q2.44-.96 5.43-.96m0 22.54q3.33 0 4.93-2.24 1.6-2.23 1.6-6.55 0-4.31-1.6-6.58-1.6-2.26-4.93-2.26-3.38 0-5 2.28-1.63 2.27-1.63 6.56t1.63 6.54q1.62 2.25 5 2.25m24.49-14.33v11.96q1.09 1.33 2.38 1.88 1.29.54 2.8.54 1.45 0 2.62-.54 1.17-.55 1.99-1.67t1.26-2.82.44-4.02q0-2.34-.37-3.96-.38-1.63-1.08-2.64t-1.7-1.48q-1.01-.47-2.28-.47-2 0-3.41.84-1.4.85-2.65 2.38m-.86-6.63.52 2.47q1.64-1.84 3.72-2.99 2.08-1.14 4.89-1.14 2.18 0 3.99.91t3.12 2.64 2.03 4.26q.71 2.54.71 5.81 0 2.99-.8 5.54-.81 2.55-2.3 4.42-1.5 1.87-3.62 2.93-2.12 1.05-4.74 1.05-2.24 0-3.82-.69-1.59-.69-2.84-1.91v10.92h-6.42v-35.39h3.93q1.24 0 1.63 1.17"/></svg>